<svg id="multimedia_3_" data-name="multimedia (3)" xmlns="http://www.w3.org/2000/svg" xmlns:xlink="http://www.w3.org/1999/xlink" width="64.488" height="50" viewBox="0 0 64.488 50">
  <defs>
    <linearGradient id="linear-gradient" x1="0.5" x2="0.5" y2="1" gradientUnits="objectBoundingBox">
      <stop offset="0" stop-color="#1e656d"/>
      <stop offset="1" stop-color="#00293c"/>
    </linearGradient>
  </defs>
  <path id="Path_28" data-name="Path 28" d="M35.472,58.458h-2.6v-2.6a.729.729,0,0,0-.729-.729H28.81a.729.729,0,0,0-.729.729v2.6h-2.6a.729.729,0,0,0-.729.729v3.331a.729.729,0,0,0,.729.729h2.6v2.6a.729.729,0,0,0,.729.729h3.331a.729.729,0,0,0,.729-.729v-2.6h2.6a.729.729,0,0,0,.729-.729V59.187A.729.729,0,0,0,35.472,58.458Zm-.729,3.331h-2.6a.729.729,0,0,0-.729.729v2.6H29.539v-2.6a.729.729,0,0,0-.729-.729h-2.6V59.916h2.6a.729.729,0,0,0,.729-.729v-2.6h1.874v2.6a.729.729,0,0,0,.729.729h2.6Z" transform="translate(-11.689 -33.232)" fill="url(#linear-gradient)"/>
  <path id="Path_29" data-name="Path 29" d="M84.006,24.378H61.729a.729.729,0,1,0,0,1.457H84.006a.729.729,0,1,0,0-1.457Z" transform="translate(-24.411 -20.214)" fill="url(#linear-gradient)"/>
  <path id="Path_30" data-name="Path 30" d="M84.006,33.71H61.729a.729.729,0,1,0,0,1.457H84.006a.729.729,0,1,0,0-1.457Z" transform="translate(-24.411 -23.909)" fill="url(#linear-gradient)"/>
  <path id="Path_31" data-name="Path 31" d="M97.142,43.042H84.237a.729.729,0,1,0,0,1.457H97.142a.729.729,0,0,0,0-1.457Z" transform="translate(-37.547 -28.509)" fill="url(#linear-gradient)"/>
  <path id="Path_32" data-name="Path 32" d="M97.142,52.373H84.237a.729.729,0,1,0,0,1.457H97.142a.729.729,0,0,0,0-1.457Z" transform="translate(-37.547 -33.109)" fill="url(#linear-gradient)"/>
  <path id="Path_33" data-name="Path 33" d="M61.087,14.378H29.1a3.4,3.4,0,0,0-3.4,3.4V28.863H3.4a3.4,3.4,0,0,0-3.4,3.4V51.406a3.4,3.4,0,0,0,3.4,3.4h7.888V63.5a.882.882,0,0,0,1.368.735l14.232-9.425h8.5a3.4,3.4,0,0,0,3.4-3.4V41.084l13.036,8.661a.882.882,0,0,0,1.37-.734v-8.69h7.888a3.4,3.4,0,0,0,3.4-3.4V17.779A3.4,3.4,0,0,0,61.087,14.378ZM35.393,53.043H26.623a.88.88,0,0,0-.487.147L13.052,61.856V53.925a.882.882,0,0,0-.882-.882H3.4a1.639,1.639,0,0,1-1.637-1.637V32.264A1.639,1.639,0,0,1,3.4,30.626H35.393a1.639,1.639,0,0,1,1.637,1.637V51.406A1.639,1.639,0,0,1,35.393,53.043ZM62.724,36.921a1.639,1.639,0,0,1-1.637,1.637H52.318a.882.882,0,0,0-.882.882v7.926l-12.643-8.4v-6.7a3.4,3.4,0,0,0-3.4-3.4H27.458V17.779A1.639,1.639,0,0,1,29.1,16.142H61.087a1.639,1.639,0,0,1,1.637,1.637Z" transform="translate(0 -14.378)" fill="url(#linear-gradient)"/>
</svg>
