<svg xmlns="http://www.w3.org/2000/svg" xmlns:xlink="http://www.w3.org/1999/xlink" width="51.614" height="51.613" viewBox="0 0 51.614 51.613"><defs><linearGradient id="a" x1="0.5" x2="0.5" y2="1" gradientUnits="objectBoundingBox"><stop offset="0" stop-color="#1e656d"/><stop offset="1" stop-color="#00293c"/></linearGradient></defs><path d="M171.046,206a5.165,5.165,0,0,0-5.04,5.427c0,3.271,2.518,5.416,6.329,8.663.664.566,1.351,1.151,2.08,1.789a1.008,1.008,0,0,0,1.327,0c.729-.638,1.416-1.223,2.08-1.789,3.811-3.247,6.329-5.392,6.329-8.663a5.165,5.165,0,0,0-5.04-5.427,4.789,4.789,0,0,0-4.032,2.247A4.789,4.789,0,0,0,171.046,206Zm5,4.8c.008-.028.791-2.787,3.06-2.787a3.164,3.164,0,0,1,3.024,3.411c0,2.34-2.115,4.143-5.62,7.129-.465.4-.941.8-1.436,1.23-.5-.428-.971-.833-1.436-1.23-3.5-2.986-5.62-4.788-5.62-7.129a3.164,3.164,0,0,1,3.024-3.411c2.241,0,3.025,2.664,3.061,2.79a1.008,1.008,0,0,0,1.944,0Z" transform="translate(-149.272 -185.237)" fill="url(#a)"/><circle cx="1.032" cy="1.032" r="1.032" transform="translate(11.354 9.293)" fill="url(#a)"/><path d="M45.14,23.978a4,4,0,0,0,2.442.823,4.032,4.032,0,0,0,2.445-7.239l-5.066-3.893V1.011A1.008,1.008,0,0,0,43.953,0H37.9A1.008,1.008,0,0,0,36.9,1.011V7.472L28.249.826a4.033,4.033,0,0,0-4.886,0l-7.675,5.9a1.008,1.008,0,1,0,1.229,1.6l7.672-5.9a2.017,2.017,0,0,1,2.436,0L48.8,19.164a2.016,2.016,0,0,1-2.436,3.213L26.422,7.039a1.008,1.008,0,0,0-1.194-.026c-.046.032-19.973,15.36-19.975,15.362a2.016,2.016,0,0,1-1.425.4,1.768,1.768,0,0,1-1.756-1.523,2.031,2.031,0,0,1,.745-2.091l6.908-5.309a1.008,1.008,0,1,0-1.229-1.6l-6.9,5.306A4.025,4.025,0,0,0,.105,21.7a3.76,3.76,0,0,0,3.527,3.084,4.024,4.024,0,0,0,2.842-.8l0,0,.181-.136V37.671a6.027,6.027,0,0,0-4.516,4.806,5.026,5.026,0,0,0,2.9,9.139H46.574a5.026,5.026,0,0,0,2.9-9.139,6.027,6.027,0,0,0-4.516-4.807V23.84ZM38.912,2.019h4.032v10.1l-4.032-3.1ZM16.13,49.6H5.041a3.012,3.012,0,0,1-1.473-5.645,1.008,1.008,0,0,0,.508-.783,4.007,4.007,0,0,1,7.275-1.943,1.008,1.008,0,0,0,1.056.4,2.988,2.988,0,0,1,3.723,2.9,1.018,1.018,0,0,0,.658,1.167A2.009,2.009,0,0,1,16.13,49.6Zm17.361-5.508A4,4,0,0,0,32,45.568H19.619a4,4,0,0,0-1.494-1.476,5.112,5.112,0,0,0-.08-.541H33.571A5.138,5.138,0,0,0,33.491,44.091ZM19.621,49.6a4.008,4.008,0,0,0,.541-2.016h11.29a4.009,4.009,0,0,0,.541,2.016Zm27.918-6.428a1.008,1.008,0,0,0,.508.783A3.012,3.012,0,0,1,46.574,49.6H35.485a2.009,2.009,0,0,1-.658-3.909,1.018,1.018,0,0,0,.658-1.167,2.988,2.988,0,0,1,3.723-2.9,1.008,1.008,0,0,0,1.056-.4,4.007,4.007,0,0,1,7.275,1.943Zm-4.594-5.637a6.062,6.062,0,0,0-3.918,2.015,4.539,4.539,0,0,0-.518-.03,5.059,5.059,0,0,0-4.03,2.016H17.136a5.059,5.059,0,0,0-4.03-2.016,4.537,4.537,0,0,0-.518.03A6.061,6.061,0,0,0,8.67,37.535V22.29L25.807,9.109,42.945,22.29Z" transform="translate(0 -0.003)" fill="url(#a)"/></svg>