<svg id="education" xmlns="http://www.w3.org/2000/svg" xmlns:xlink="http://www.w3.org/1999/xlink" width="48" height="48" viewBox="0 0 48 48">
  <defs>
    <linearGradient id="linear-gradient" x1="0.5" x2="0.5" y2="1" gradientUnits="objectBoundingBox">
      <stop offset="0" stop-color="#1e656d"/>
      <stop offset="1" stop-color="#00293c"/>
    </linearGradient>
  </defs>
  <path id="Path_34" data-name="Path 34" d="M43.7,252.632l-1.938-.673a4.679,4.679,0,0,0,1.782-3.674v-1.42a4.686,4.686,0,1,0-9.373,0v1.42a4.679,4.679,0,0,0,1.783,3.674l-1.938.673a6.382,6.382,0,0,0-3.036,2.233H25.751V252.8a6.4,6.4,0,0,0-4.295-6.037l-1.938-.673a4.679,4.679,0,0,0,1.783-3.674V241a4.686,4.686,0,0,0-9.373,0v1.42a4.68,4.68,0,0,0,1.782,3.674l-1.938.673A6.4,6.4,0,0,0,7.478,252.8v2.066H.709a.71.71,0,0,0-.71.71v5.87a.71.71,0,0,0,.71.71H30.248a.65.65,0,0,1,.189,0H47.289a.71.71,0,0,0,.71-.71v-2.776a6.4,6.4,0,0,0-4.295-6.037ZM35.6,246.865a3.266,3.266,0,1,1,6.532,0v1.42a3.266,3.266,0,1,1-6.532,0ZM13.348,241a3.266,3.266,0,0,1,6.532,0v1.42a3.266,3.266,0,1,1-6.532,0ZM18.1,247.1l.69.24-2.18,3.782-2.18-3.782.69-.24ZM8.9,252.8a4.974,4.974,0,0,1,3.34-4.7l.831-.288L16,252.9a.71.71,0,0,0,1.23,0l2.93-5.084.831.288a4.974,4.974,0,0,1,3.34,4.7v2.066H8.9ZM1.42,256.285H30.19a6.368,6.368,0,0,0-.463,2.384v2.066H1.42Zm45.159,4.449H31.147v-2.066a4.974,4.974,0,0,1,3.34-4.7l2.886-1h2.979l2.886,1a4.974,4.974,0,0,1,3.34,4.7Zm0,0" transform="translate(0.001 -214.155)" fill="url(#linear-gradient)"/>
  <path id="Path_35" data-name="Path 35" d="M43.5,5.112H36.289a.71.71,0,0,0,0,1.42H43.5A3.08,3.08,0,0,1,46.579,9.61v9.846A3.08,3.08,0,0,1,43.5,22.532H33.751a.71.71,0,0,0-.71.71v3.02L29.519,22.74a.71.71,0,0,0-.5-.208H23.242a3.081,3.081,0,0,1-3.077-3.077V9.609a3.08,3.08,0,0,1,3.077-3.077H32.97a.71.71,0,1,0,0-1.42H29.254V4.5a4.5,4.5,0,0,0-4.5-4.5H4.5A4.5,4.5,0,0,0,0,4.5v1.57a.71.71,0,1,0,1.42,0V4.5A3.08,3.08,0,0,1,4.5,1.42h20.26A3.08,3.08,0,0,1,27.834,4.5v.615H23.242a4.5,4.5,0,0,0-4.5,4.5v7.81H11.313a.71.71,0,0,0-.71.71v3.02L7.082,17.628a.71.71,0,0,0-.5-.208H4.5A3.08,3.08,0,0,1,1.42,14.343V9.369a.71.71,0,0,0-1.42,0v4.974a4.5,4.5,0,0,0,4.5,4.5H6.285l4.526,4.526a.71.71,0,0,0,1.212-.5V18.84h6.722v.616a4.5,4.5,0,0,0,4.5,4.5h5.481l4.526,4.526a.71.71,0,0,0,1.212-.5V23.952H43.5a4.5,4.5,0,0,0,4.5-4.5V9.609a4.5,4.5,0,0,0-4.5-4.5Zm0,0" transform="translate(0.001 0)" fill="url(#linear-gradient)"/>
</svg>
