<svg xmlns="http://www.w3.org/2000/svg" xmlns:xlink="http://www.w3.org/1999/xlink" width="59.431" height="51.282" viewBox="0 0 59.431 51.282"><defs><linearGradient id="a" x1="0.5" x2="0.5" y2="1" gradientUnits="objectBoundingBox"><stop offset="0" stop-color="#1e656d"/><stop offset="1" stop-color="#00293c"/></linearGradient></defs><path d="M41.145,37.343h2.516v2.509a.825.825,0,0,0,.825.825h4.451a.825.825,0,0,0,.825-.825V37.343h2.516a.825.825,0,0,0,.825-.792V32.067a.825.825,0,0,0-.825-.8H49.763V28.725a.825.825,0,0,0-.825-.825H44.487a.825.825,0,0,0-.825.825v2.542H41.145a.825.825,0,0,0-.825.825V36.55A.825.825,0,0,0,41.145,37.343Zm.825-4.451h2.516a.825.825,0,0,0,.825-.825V29.551h2.8v2.516a.825.825,0,0,0,.825.825h2.516v2.8H48.937a.825.825,0,0,0-.825.858v2.516h-2.8V36.55a.825.825,0,0,0-.825-.825H41.971Z" transform="translate(-16.997 -16.853)" fill="url(#a)"/><path d="M5.825,29.435H7.476V61.627a.825.825,0,0,0,.825.825H61.129a.825.825,0,0,0,.825-.825V29.435h1.651a.825.825,0,0,0,.825-.825V23.657a.825.825,0,0,0-.825-.825H55.351V12a.825.825,0,0,0-.825-.825H14.905A.825.825,0,0,0,14.08,12V22.832H5.825A.825.825,0,0,0,5,23.657V28.61a.825.825,0,0,0,.825.825ZM26,60.8V45.944h7.924V60.8Zm9.542,0V45.944h7.924V60.8Zm24.763,0H45.116V45.118a.825.825,0,0,0-.825-.825H25.173a.825.825,0,0,0-.825.825V60.8H9.16V29.435H23.133a11.708,11.708,0,0,0,7.752,10.123,11.464,11.464,0,0,0,7.66,0A11.708,11.708,0,0,0,46.3,29.435H60.3ZM24.81,27.362a9.767,9.767,0,0,1,1.037-3.3,9.951,9.951,0,0,1,17.684,0,9.76,9.76,0,0,1,1.116,4.57,9.958,9.958,0,1,1-19.916,0A9.74,9.74,0,0,1,24.81,27.362Zm37.943.423H46.245a12.269,12.269,0,0,0-.733-3.3H62.78ZM15.731,12.821H53.7V22.832H44.772a11.589,11.589,0,0,0-20.114,0H15.731ZM6.651,24.482H23.866a12.269,12.269,0,0,0-.733,3.3H6.651Z" transform="translate(-5 -11.17)" fill="url(#a)"/><path d="M69.575,47.981H72.93a.825.825,0,0,0,0-1.651H69.575a.825.825,0,1,0,0,1.651Z" transform="translate(-26.653 -23.112)" fill="url(#a)"/><path d="M79.5,47.981H82.85a.825.825,0,0,0,0-1.651H79.5a.825.825,0,1,0,0,1.651Z" transform="translate(-30.023 -23.112)" fill="url(#a)"/><path d="M69.575,55.481H72.93a.825.825,0,0,0,0-1.651H69.575a.825.825,0,1,0,0,1.651Z" transform="translate(-26.653 -25.66)" fill="url(#a)"/><path d="M79.5,55.481H82.85a.825.825,0,0,0,0-1.651H79.5a.825.825,0,1,0,0,1.651Z" transform="translate(-30.023 -25.66)" fill="url(#a)"/><path d="M69.575,62.981H72.93a.825.825,0,0,0,0-1.651H69.575a.825.825,0,1,0,0,1.651Z" transform="translate(-26.653 -28.207)" fill="url(#a)"/><path d="M79.5,62.981H82.85a.825.825,0,0,0,0-1.651H79.5a.825.825,0,1,0,0,1.651Z" transform="translate(-30.023 -28.207)" fill="url(#a)"/><path d="M69.575,70.481H72.93a.825.825,0,1,0,0-1.651H69.575a.825.825,0,1,0,0,1.651Z" transform="translate(-26.653 -30.755)" fill="url(#a)"/><path d="M79.5,70.481H82.85a.825.825,0,1,0,0-1.651H79.5a.825.825,0,1,0,0,1.651Z" transform="translate(-30.023 -30.755)" fill="url(#a)"/><path d="M69.575,77.981H72.93a.825.825,0,1,0,0-1.651H69.575a.825.825,0,1,0,0,1.651Z" transform="translate(-26.653 -33.302)" fill="url(#a)"/><path d="M79.5,77.981H82.85a.825.825,0,1,0,0-1.651H79.5a.825.825,0,1,0,0,1.651Z" transform="translate(-30.023 -33.302)" fill="url(#a)"/><path d="M27.85,46.33H24.5a.825.825,0,0,0,0,1.651H27.85a.825.825,0,1,0,0-1.651Z" transform="translate(-11.341 -23.112)" fill="url(#a)"/><path d="M17.93,46.33H14.575a.825.825,0,1,0,0,1.651H17.93a.825.825,0,1,0,0-1.651Z" transform="translate(-7.972 -23.112)" fill="url(#a)"/><path d="M27.85,53.83H24.5a.825.825,0,1,0,0,1.651H27.85a.825.825,0,1,0,0-1.651Z" transform="translate(-11.341 -25.66)" fill="url(#a)"/><path d="M17.93,53.83H14.575a.825.825,0,1,0,0,1.651H17.93a.825.825,0,1,0,0-1.651Z" transform="translate(-7.972 -25.66)" fill="url(#a)"/><path d="M27.85,61.33H24.5a.825.825,0,0,0,0,1.651H27.85a.825.825,0,0,0,0-1.651Z" transform="translate(-11.341 -28.207)" fill="url(#a)"/><path d="M17.93,61.33H14.575a.825.825,0,0,0,0,1.651H17.93a.825.825,0,0,0,0-1.651Z" transform="translate(-7.972 -28.207)" fill="url(#a)"/><path d="M27.85,68.83H24.5a.825.825,0,1,0,0,1.651H27.85a.825.825,0,1,0,0-1.651Z" transform="translate(-11.341 -30.755)" fill="url(#a)"/><path d="M17.93,68.83H14.575a.825.825,0,1,0,0,1.651H17.93a.825.825,0,1,0,0-1.651Z" transform="translate(-7.972 -30.755)" fill="url(#a)"/><path d="M27.85,76.33H24.5a.825.825,0,1,0,0,1.651H27.85a.825.825,0,1,0,0-1.651Z" transform="translate(-11.341 -33.302)" fill="url(#a)"/><path d="M17.93,76.33H14.575a.825.825,0,1,0,0,1.651H17.93a.825.825,0,1,0,0-1.651Z" transform="translate(-7.972 -33.302)" fill="url(#a)"/></svg>